<svg width="100" height="58" viewBox="0 0 100 58" fill="none" xmlns="http://www.w3.org/2000/svg">
<mask id="path-1-outside-1_286_27956" maskUnits="userSpaceOnUse" x="6" y="14" width="87" height="29" fill="black">
<rect fill="white" x="6" y="14" width="87" height="29"/>
<path d="M7.87466 28.256C7.87466 25.76 8.39066 23.54 9.42266 21.596C10.4787 19.628 11.9667 18.104 13.8867 17.024C15.8067 15.92 18.0147 15.368 20.5107 15.368C23.6787 15.368 26.3427 16.22 28.5027 17.924C30.6627 19.604 32.0547 21.896 32.6787 24.8H25.0827C24.6267 23.84 23.9907 23.108 23.1747 22.604C22.3827 22.1 21.4587 21.848 20.4027 21.848C18.7707 21.848 17.4627 22.436 16.4787 23.612C15.5187 24.764 15.0387 26.312 15.0387 28.256C15.0387 30.224 15.5187 31.796 16.4787 32.972C17.4627 34.124 18.7707 34.7 20.4027 34.7C21.4587 34.7 22.3827 34.448 23.1747 33.944C23.9907 33.44 24.6267 32.708 25.0827 31.748H32.6787C32.0547 34.652 30.6627 36.956 28.5027 38.66C26.3427 40.34 23.6787 41.18 20.5107 41.18C18.0147 41.18 15.8067 40.64 13.8867 39.56C11.9667 38.456 10.4787 36.932 9.42266 34.988C8.39066 33.02 7.87466 30.776 7.87466 28.256ZM65.6479 15.62V41H58.5919V26.996L53.8039 41H47.8999L43.0759 26.888V41H36.0199V15.62H44.5519L50.9239 32.108L57.1519 15.62H65.6479ZM76.5764 15.62V30.344C76.5764 31.712 76.8884 32.768 77.5124 33.512C78.1604 34.256 79.1324 34.628 80.4284 34.628C81.7244 34.628 82.6964 34.256 83.3444 33.512C84.0164 32.744 84.3524 31.688 84.3524 30.344V15.62H91.4084V30.344C91.4084 32.672 90.9164 34.664 89.9324 36.32C88.9484 37.952 87.6044 39.188 85.9004 40.028C84.2204 40.844 82.3484 41.252 80.2844 41.252C78.2204 41.252 76.3724 40.844 74.7404 40.028C73.1324 39.188 71.8604 37.952 70.9244 36.32C70.0124 34.688 69.5564 32.696 69.5564 30.344V15.62H76.5764Z"/>
</mask>
<path d="M9.42266 21.596L8.54149 21.1232L8.5394 21.1271L9.42266 21.596ZM13.8867 17.024L14.3769 17.8956L14.3851 17.8909L13.8867 17.024ZM28.5027 17.924L27.8833 18.7091L27.8887 18.7134L28.5027 17.924ZM32.6787 24.8V25.8H33.9164L33.6563 24.5899L32.6787 24.8ZM25.0827 24.8L24.1794 25.2291L24.4506 25.8H25.0827V24.8ZM23.1747 22.604L22.6377 23.4477L22.6492 23.4548L23.1747 22.604ZM16.4787 23.612L15.7117 22.9703L15.7104 22.9718L16.4787 23.612ZM16.4787 32.972L15.704 33.6044L15.711 33.613L15.7183 33.6215L16.4787 32.972ZM23.1747 33.944L22.6491 33.0931L22.6378 33.1003L23.1747 33.944ZM25.0827 31.748V30.748H24.4506L24.1794 31.3189L25.0827 31.748ZM32.6787 31.748L33.6563 31.9581L33.9164 30.748H32.6787V31.748ZM28.5027 38.66L29.1166 39.4494L29.122 39.4451L28.5027 38.66ZM13.8867 39.56L13.3882 40.4269L13.3964 40.4316L13.8867 39.56ZM9.42266 34.988L8.53704 35.4524L8.54044 35.4589L8.54393 35.4653L9.42266 34.988ZM8.87466 28.256C8.87466 25.9013 9.36033 23.8461 10.3059 22.0649L8.5394 21.1271C7.42098 23.2339 6.87466 25.6187 6.87466 28.256H8.87466ZM10.3038 22.0688C11.2713 20.2657 12.6248 18.8811 14.3769 17.8956L13.3964 16.1524C11.3085 17.3269 9.68597 18.9903 8.5415 21.1232L10.3038 22.0688ZM14.3851 17.8909C16.135 16.8847 18.1669 16.368 20.5107 16.368V14.368C17.8624 14.368 15.4783 14.9553 13.3882 16.1571L14.3851 17.8909ZM20.5107 16.368C23.4896 16.368 25.9258 17.1649 27.8833 18.7091L29.122 17.1389C26.7595 15.2751 23.8677 14.368 20.5107 14.368V16.368ZM27.8887 18.7134C29.8468 20.2363 31.1218 22.3148 31.701 25.0101L33.6563 24.5899C32.9875 21.4772 31.4785 18.9717 29.1166 17.1346L27.8887 18.7134ZM32.6787 23.8H25.0827V25.8H32.6787V23.8ZM25.9859 24.3709C25.4565 23.2564 24.6975 22.3692 23.7002 21.7532L22.6492 23.4548C23.2838 23.8468 23.7968 24.4236 24.1794 25.2291L25.9859 24.3709ZM23.7115 21.7603C22.7396 21.1418 21.6244 20.848 20.4027 20.848V22.848C21.2929 22.848 22.0257 23.0581 22.6378 23.4477L23.7115 21.7603ZM20.4027 20.848C18.4963 20.848 16.8993 21.551 15.7117 22.9703L17.2456 24.2537C18.0261 23.321 19.045 22.848 20.4027 22.848V20.848ZM15.7104 22.9718C14.561 24.3511 14.0387 26.1485 14.0387 28.256H16.0387C16.0387 26.4755 16.4763 25.1769 17.2469 24.2522L15.7104 22.9718ZM14.0387 28.256C14.0387 30.3852 14.5598 32.2027 15.704 33.6044L17.2533 32.3396C16.4775 31.3893 16.0387 30.0628 16.0387 28.256H14.0387ZM15.7183 33.6215C16.9083 35.0147 18.5037 35.7 20.4027 35.7V33.7C19.0376 33.7 18.017 33.2333 17.239 32.3225L15.7183 33.6215ZM20.4027 35.7C21.6244 35.7 22.7396 35.4061 23.7115 34.7877L22.6378 33.1003C22.0257 33.4898 21.2929 33.7 20.4027 33.7V35.7ZM23.7001 34.7948C24.6975 34.1788 25.4565 33.2916 25.9859 32.1771L24.1794 31.3189C23.7968 32.1244 23.2838 32.7012 22.6492 33.0932L23.7001 34.7948ZM25.0827 32.748H32.6787V30.748H25.0827V32.748ZM31.701 31.5379C31.1217 34.2339 29.8455 36.3269 27.8833 37.8749L29.122 39.4451C31.4798 37.5851 32.9876 35.0701 33.6563 31.9581L31.701 31.5379ZM27.8887 37.8706C25.9311 39.3932 23.4929 40.18 20.5107 40.18V42.18C23.8644 42.18 26.7542 41.2868 29.1166 39.4494L27.8887 37.8706ZM20.5107 40.18C18.1632 40.18 16.1282 39.6735 14.3769 38.6884L13.3964 40.4316C15.4851 41.6065 17.8661 42.18 20.5107 42.18V40.18ZM14.3851 38.6931C12.6253 37.6812 11.269 36.292 10.3014 34.5107L8.54393 35.4653C9.68832 37.572 11.308 39.2308 13.3882 40.4269L14.3851 38.6931ZM10.3083 34.5236C9.36096 32.7171 8.87466 30.6361 8.87466 28.256H6.87466C6.87466 30.9159 7.42035 33.3229 8.53704 35.4524L10.3083 34.5236ZM65.6479 15.62H66.6479V14.62H65.6479V15.62ZM65.6479 41V42H66.6479V41H65.6479ZM58.5919 41H57.5919V42H58.5919V41ZM58.5919 26.996H59.5919L57.6457 26.6725L58.5919 26.996ZM53.8039 41V42H54.5188L54.7501 41.3235L53.8039 41ZM47.8999 41L46.9537 41.3235L47.1849 42H47.8999V41ZM43.0759 26.888L44.0221 26.5645L42.0759 26.888H43.0759ZM43.0759 41V42H44.0759V41H43.0759ZM36.0199 41H35.0199V42H36.0199V41ZM36.0199 15.62V14.62H35.0199V15.62H36.0199ZM44.5519 15.62L45.4847 15.2595L45.2375 14.62H44.5519V15.62ZM50.9239 32.108L49.9911 32.4685L50.9346 34.9097L51.8594 32.4614L50.9239 32.108ZM57.1519 15.62V14.62H56.4607L56.2164 15.2666L57.1519 15.62ZM64.6479 15.62V41H66.6479V15.62H64.6479ZM65.6479 40H58.5919V42H65.6479V40ZM59.5919 41V26.996H57.5919V41H59.5919ZM57.6457 26.6725L52.8577 40.6765L54.7501 41.3235L59.5381 27.3195L57.6457 26.6725ZM53.8039 40H47.8999V42H53.8039V40ZM48.8461 40.6765L44.0221 26.5645L42.1297 27.2115L46.9537 41.3235L48.8461 40.6765ZM42.0759 26.888V41H44.0759V26.888H42.0759ZM43.0759 40H36.0199V42H43.0759V40ZM37.0199 41V15.62H35.0199V41H37.0199ZM36.0199 16.62H44.5519V14.62H36.0199V16.62ZM43.6191 15.9805L49.9911 32.4685L51.8567 31.7475L45.4847 15.2595L43.6191 15.9805ZM51.8594 32.4614L58.0874 15.9734L56.2164 15.2666L49.9884 31.7546L51.8594 32.4614ZM57.1519 16.62H65.6479V14.62H57.1519V16.62ZM76.5764 15.62H77.5764V14.62H76.5764V15.62ZM77.5124 33.512L76.7462 34.1546L76.7522 34.1618L76.7584 34.1688L77.5124 33.512ZM83.3444 33.512L82.5919 32.8535L82.5904 32.8552L83.3444 33.512ZM84.3524 15.62V14.62H83.3524V15.62H84.3524ZM91.4084 15.62H92.4084V14.62H91.4084V15.62ZM89.9324 36.32L90.7888 36.8364L90.7921 36.8308L89.9324 36.32ZM85.9004 40.028L86.3373 40.9275L86.3426 40.9249L85.9004 40.028ZM74.7404 40.028L74.2774 40.9143L74.2853 40.9185L74.2932 40.9224L74.7404 40.028ZM70.9244 36.32L70.0514 36.8079L70.057 36.8175L70.9244 36.32ZM69.5564 15.62V14.62H68.5564V15.62H69.5564ZM75.5764 15.62V30.344H77.5764V15.62H75.5764ZM75.5764 30.344C75.5764 31.8522 75.9198 33.1692 76.7462 34.1546L78.2786 32.8694C77.8571 32.3668 77.5764 31.5718 77.5764 30.344H75.5764ZM76.7584 34.1688C77.6515 35.1942 78.9396 35.628 80.4284 35.628V33.628C79.3253 33.628 78.6694 33.3178 78.2665 32.8552L76.7584 34.1688ZM80.4284 35.628C81.9173 35.628 83.2054 35.1942 84.0985 34.1688L82.5904 32.8552C82.1875 33.3178 81.5316 33.628 80.4284 33.628V35.628ZM84.097 34.1705C84.9734 33.1689 85.3524 31.8521 85.3524 30.344H83.3524C83.3524 31.5239 83.0595 32.3191 82.5919 32.8535L84.097 34.1705ZM85.3524 30.344V15.62H83.3524V30.344H85.3524ZM84.3524 16.62H91.4084V14.62H84.3524V16.62ZM90.4084 15.62V30.344H92.4084V15.62H90.4084ZM90.4084 30.344C90.4084 32.5298 89.9475 34.3371 89.0728 35.8092L90.7921 36.8308C91.8854 34.9909 92.4084 32.8142 92.4084 30.344H90.4084ZM89.0761 35.8037C88.1905 37.2723 86.9901 38.376 85.4583 39.1311L86.3426 40.9249C88.2188 40 89.7063 38.6317 90.7888 36.8363L89.0761 35.8037ZM85.4635 39.1285C83.9335 39.8717 82.2132 40.252 80.2844 40.252V42.252C82.4837 42.252 84.5074 41.8163 86.3373 40.9275L85.4635 39.1285ZM80.2844 40.252C78.3552 40.252 76.6635 39.8715 75.1877 39.1336L74.2932 40.9224C76.0813 41.8165 78.0857 42.252 80.2844 42.252V40.252ZM75.2035 39.1417C73.7711 38.3934 72.6367 37.2954 71.7919 35.8225L70.057 36.8175C71.0842 38.6086 72.4938 39.9826 74.2774 40.9143L75.2035 39.1417ZM71.7974 35.8322C70.9876 34.383 70.5564 32.5685 70.5564 30.344H68.5564C68.5564 32.8235 69.0373 34.993 70.0515 36.8078L71.7974 35.8322ZM70.5564 30.344V15.62H68.5564V30.344H70.5564ZM69.5564 16.62H76.5764V14.62H69.5564V16.62Z" fill="url(#paint0_linear_286_27956)" mask="url(#path-1-outside-1_286_27956)"/>
<defs>
<linearGradient id="paint0_linear_286_27956" x1="100" y1="28.7234" x2="0" y2="28.7234" gradientUnits="userSpaceOnUse">
<stop stop-color="#9747FF"/>
<stop offset="0.345" stop-color="#7035BD"/>
<stop offset="1" stop-color="#5B2B99"/>
</linearGradient>
</defs>
</svg>
