<svg width="104" height="34" viewBox="0 0 104 34" fill="none" xmlns="http://www.w3.org/2000/svg">
<g clip-path="url(#clip0_1625_5974)">
<mask id="mask0_1625_5974" style="mask-type:luminance" maskUnits="userSpaceOnUse" x="0" y="0" width="104" height="34">
<path d="M103.926 0.26416H0V33.7354H103.926V0.26416Z" fill="white"/>
</mask>
<g mask="url(#mask0_1625_5974)">
<path d="M89.0125 22.2607H90.516V25.7014H93.9221V22.2607H95.4256V30.7622H93.9221V26.9541H90.516V30.7622H89.0125V22.2607Z" fill="black"/>
<path d="M97.1794 22.2608H98.6487V26.3028C99.5673 25.167 101.004 23.4467 101.955 22.2608H103.759L100.77 25.7182L103.943 30.7622H102.139L99.7347 26.7036L98.6654 27.8394V30.7456H97.1794V22.2441V22.2608Z" fill="black"/>
<path d="M59.4197 26.4701C59.4197 28.9253 58.2506 30.8962 55.6286 30.8962C53.0067 30.8962 51.9546 28.9253 51.9546 26.4534C51.9546 24.2987 53.1069 22.1274 55.7455 22.1274C58.2506 22.1274 59.4197 24.115 59.4197 26.4701ZM53.5077 26.4701C53.5077 28.2739 54.2259 29.6936 55.6955 29.6936C57.2653 29.6936 57.8832 28.3407 57.8832 26.4867C57.8832 24.7831 57.282 23.3635 55.6788 23.3635C54.0755 23.3635 53.5077 24.7497 53.5077 26.4701Z" fill="black"/>
<path d="M62.0918 27.1379V30.779H60.6055V22.2441H63.9289C65.4987 22.2441 66.6176 23.0291 66.6176 24.5157C66.6176 25.7015 65.9663 26.2527 65.2649 26.5032C66.1333 26.8205 66.4506 27.4886 66.4506 28.591V28.7914C66.4506 29.5597 66.484 30.2779 66.5675 30.779H65.1145C64.9976 30.4282 64.9643 29.7768 64.9643 28.7914V28.591C64.9643 27.5387 64.5801 27.1545 63.361 27.1545H62.0918V27.1379ZM62.0918 25.9354H63.4779C64.3964 25.9354 65.1145 25.6848 65.1145 24.6492C65.1145 23.8141 64.53 23.4634 63.7284 23.4634H62.0918V25.9354Z" fill="black"/>
<path d="M74.8007 27.4385C74.8007 25.952 74.8174 24.2484 74.8508 23.313H74.8007C74.4165 25 73.3979 28.3572 72.5962 30.779H71.2769C70.6924 28.7413 69.6403 24.9833 69.2728 23.2964H69.2061C69.2728 24.2818 69.3063 26.1524 69.3063 27.6222V30.779H67.9202V22.2441H70.1747C70.8761 24.4154 71.7779 27.5721 72.0285 28.8248C72.2121 27.8226 73.3144 24.4488 74.0491 22.2441H76.2202V30.779H74.7673V27.4385H74.8007Z" fill="black"/>
<path d="M78.7755 28.3072C78.9091 29.1924 79.4936 29.7101 80.4455 29.7101C81.3974 29.7101 81.8818 29.2592 81.8818 28.5243C81.8818 27.6892 81.4141 27.3384 80.0948 26.9543C78.191 26.4031 77.5062 25.735 77.5062 24.5157C77.5062 23.0125 78.692 22.144 80.2952 22.144C82.2658 22.144 83.1008 23.2129 83.201 24.5325H81.7148C81.5978 23.8143 81.2304 23.3132 80.2785 23.3132C79.4268 23.3132 79.0093 23.7141 79.0093 24.3654C79.0093 25.0503 79.4435 25.2841 80.7127 25.6515C82.867 26.2862 83.4182 27.138 83.4182 28.3406C83.4182 29.7435 82.4829 30.8793 80.362 30.8793C78.525 30.8793 77.3726 29.944 77.2725 28.2905H78.7587L78.7755 28.3072Z" fill="black"/>
<path d="M45.7087 22.2607H51.0027V23.5134H47.1784V25.9018H50.7689V27.1378H47.1784V30.7789H45.7087V22.2607Z" fill="black"/>
<path d="M11.5899 22.7285L11.5398 33.7353H23.063L11.5899 22.7285Z" fill="#1D4788"/>
<path d="M21.8774 11.2876L21.9275 0.26416H10.4043L21.8774 11.2876Z" fill="#1D4788"/>
<path d="M11.0222 11.8553L0 11.8052V23.3298L11.0222 11.8553Z" fill="#1D4788"/>
<path d="M22.4619 22.1439L33.4674 22.194V10.6694L22.4619 22.1439Z" fill="#1D4788"/>
<path d="M56.9982 15.7469H55.5786V15.0955H47.0448V15.7469H45.6252V4.27246H56.9982V15.7469ZM55.5786 13.8595V5.52512H53.4243V10.2518C53.4243 10.469 53.5746 10.5692 53.8752 10.5692H55.2613V11.8553H53.4577C52.5225 11.8553 52.0716 11.421 52.0716 10.5859V5.52512H50.5184V8.21419C50.485 10.1349 49.7335 11.5212 48.2472 12.4065L47.1617 11.4544C48.481 10.7863 49.149 9.70065 49.1658 8.21419V5.52512H47.0615V13.8595H55.5954H55.5786Z" fill="#1D4788"/>
<path d="M66.4339 5.37486C66.2 4.87379 65.9161 4.40612 65.5821 3.95517L66.9015 3.4541C67.2522 3.98857 67.5862 4.63996 67.8868 5.37486H72.8301V6.72773H65.8828C65.8494 7.24551 65.8326 7.89689 65.7825 8.7153H71.3103C71.2602 11.6883 71.1267 13.5589 70.9096 14.2771C70.6089 15.3294 69.9242 15.8472 68.8721 15.8806C68.4379 15.8806 67.9202 15.8472 67.3357 15.8137L66.9182 14.5444C67.6363 14.5778 68.2375 14.6112 68.7218 14.6112C69.2395 14.5778 69.5735 14.1936 69.7406 13.442C69.8241 13.0245 69.8574 11.9054 69.8908 10.0515H65.6323C65.4485 11.0703 65.1145 11.989 64.6469 12.8407C63.9956 14.0099 63.0604 15.0789 61.8747 16.0476L60.856 15.0621C62.2755 13.8763 63.2107 12.7907 63.6783 11.7718C64.1125 10.7697 64.3797 9.63392 64.4465 8.36455C64.4799 7.69647 64.4966 7.162 64.5134 6.74444H60.8727V5.39156H66.4673L66.4339 5.37486Z" fill="#1D4788"/>
<path d="M77.9238 10.436C77.7401 12.0395 77.4896 13.4591 77.2057 14.6783L76.187 14.3109C76.4875 13.2253 76.7548 11.839 76.9719 10.1855L77.9072 10.436H77.9238ZM77.9238 7.46301L77.0053 7.69684C76.8383 6.76151 76.6545 5.84289 76.4375 4.99108L77.4228 4.67373C77.6065 5.47544 77.7735 6.41077 77.9072 7.46301M78.2077 8.1645V3.57139H79.5271V8.1645H80.98V9.43389H79.5271V15.9477H78.2077V9.43389H76.4375V8.1645H78.2077ZM81.3975 13.576L80.3621 13.8432C80.2117 12.6574 80.0281 11.5217 79.7942 10.4193L80.646 10.1354C80.9132 11.1375 81.1637 12.2733 81.3975 13.576ZM81.2972 4.64033C81.2137 5.75938 81.0133 6.74481 80.7127 7.61333L79.8109 7.31269C80.0447 6.51098 80.2117 5.57566 80.2786 4.49001L81.2972 4.62363V4.64033ZM82.1991 15.9979L81.1803 15.0792C81.7816 14.361 82.0989 13.409 82.0989 12.29V9.36703H87.9106V14.6951C87.9106 15.4968 87.4597 15.8976 86.5577 15.8976H85.2215L84.9044 14.6951C85.3554 14.7285 85.7729 14.7452 86.1737 14.7452C86.4406 14.7452 86.5745 14.5614 86.5745 14.2107V13.8767H83.2178C83.0341 14.6951 82.7001 15.4133 82.2158 15.9979M84.3531 4.30628V3.55469H85.706V4.30628H88.3616V5.42534H85.706V5.99321H87.9776V7.09556H85.706V7.68014H88.662V8.83258H81.3641V7.68014H84.3531V7.09556H82.0154V5.99321H84.3531V5.42534H81.6146V4.30628H84.3531ZM83.4349 12.2065C83.4349 12.4235 83.4349 12.624 83.4015 12.8411H86.6079V12.1897H83.4516V12.2231L83.4349 12.2065ZM86.5912 10.4694H83.4349V11.1375H86.5912V10.4694Z" fill="#1D4788"/>
<path d="M96.3777 3.58789C97.4294 4.22257 98.5648 4.99087 99.8006 5.9262L98.9991 7.01184C98.5322 6.64439 98.1147 6.29365 97.7465 6.02641V6.79471H94.5906V6.31035C94.1563 6.6611 93.7054 7.01184 93.2209 7.36259H98.9656V11.4046H94.373C94.3404 11.6384 94.3069 11.8722 94.2735 12.1227H99.0827V15.9141H97.78V15.4632H95.4256V15.9308H94.1731V12.7073C93.9062 13.9099 93.4886 14.9955 92.9038 15.9643L91.8019 14.9788C92.6704 13.6594 93.1205 11.9891 93.1205 9.91802V7.4294C92.954 7.54631 92.7699 7.66323 92.6034 7.78014L91.7852 6.64439C93.3046 5.70907 94.5571 4.70694 95.5594 3.60459H96.4112L96.3777 3.58789ZM94.44 9.90137C94.44 10.0684 94.44 10.2354 94.44 10.4024H97.6135V9.83451H94.4567V9.90137H94.44ZM97.5968 8.36473H94.44V8.93262H97.5968V8.36473ZM97.3792 5.77588C96.8622 5.39172 96.4279 5.07438 96.0598 4.85725C95.7929 5.15789 95.4758 5.47523 95.1587 5.77588H97.3625H97.3792ZM97.7465 13.1749H95.3921V14.3608H97.7465V13.1749ZM100.452 15.8139L100.135 14.4611C100.786 14.5111 101.388 14.5446 101.972 14.5446C102.273 14.5446 102.423 14.3776 102.423 14.0769V3.60459H103.809V14.4276C103.809 15.3462 103.358 15.8139 102.44 15.8139H100.436H100.452ZM101.471 13.058H100.135V4.48981H101.471V13.0413V13.058Z" fill="#1D4788"/>
</g>
</g>
<defs>
<clipPath id="clip0_1625_5974">
<rect width="104" height="33.4713" fill="white" transform="translate(0 0.26416)"/>
</clipPath>
</defs>
</svg>
